<svg xmlns="http://www.w3.org/2000/svg" xmlns:xlink="http://www.w3.org/1999/xlink" width="90" height="90" viewBox="0 0 90 90">
  <defs>
    <clipPath id="clip-path">
      <rect id="Rectangle_126" data-name="Rectangle 126" width="90" height="90" transform="translate(-2614 3678)" fill="#fff" stroke="#707070" stroke-width="1"/>
    </clipPath>
  </defs>
  <g id="Groupe_de_masques_6" data-name="Groupe de masques 6" transform="translate(2614 -3678)" clip-path="url(#clip-path)">
    <g id="_24-hours" data-name="24-hours" transform="translate(-2614 3678)">
      <rect id="Rectangle_127" data-name="Rectangle 127" width="90" height="90" fill="none"/>
      <path id="Tracé_69" data-name="Tracé 69" d="M74.157,48.273h-.408c.033-7.533.051-15.627-.018-16.743-.159-2.466-1.29-4.476-2.88-5.121s-3.261.162-4.5,2.148c-1.359,2.181-7.644,17.007-9.537,21.5a4.392,4.392,0,0,0,.039,3.42,2.6,2.6,0,0,0,2.271,1.7h9.3c0,2.04-.024,4-.036,5.763,0,1.905,1.158,3.465,2.616,3.48h.024c1.446,0,2.625-1.524,2.637-3.42,0-1.086.021-3.2.036-5.823h.441c1.455,0,2.637-1.545,2.637-3.453s-1.182-3.45-2.637-3.45Zm-5.682,0H63.6c1.821-4.263,3.6-8.355,4.9-11.262,0,3,0,7.062-.03,11.262Z" fill="#528e8e"/>
      <path id="Tracé_70" data-name="Tracé 70" d="M50.181,57.444c-2.478.042-5.1.069-7.263.072,1.335-2.334,3.216-5.685,5.778-10.479a27.408,27.408,0,0,0,2.952-8,11.607,11.607,0,0,0,.189-1.992c0-6.321-3.933-11.466-8.763-11.466-4.179,0-7.8,3.9-8.6,9.246-.282,1.872.648,3.684,2.079,4.053s2.814-.852,3.1-2.721c.318-2.13,1.758-3.675,3.423-3.675,1.875,0,3.408,1.944,3.483,4.374l-.075.774a20.141,20.141,0,0,1-2.1,5.448c-3.792,7.092-6.054,10.968-7.272,13.053-1.482,2.541-2.16,3.7-1.707,5.619a3.258,3.258,0,0,0,1.8,2.37c.36.156.7.3,5.295.3,1.83,0,4.329-.024,7.773-.081,1.455-.024,2.622-1.59,2.6-3.495s-1.2-3.432-2.67-3.408Z" fill="#528e8e"/>
      <path id="Tracé_71" data-name="Tracé 71" d="M79.926,13.179C73.431,4.68,64.8,0,55.608,0S37.8,4.68,31.29,13.179c-.2.258-.387.516-.579.78H2.637C1.182,13.959,0,15.5,0,17.4s1.182,3.45,2.637,3.45H26.574a49.989,49.989,0,0,0-2.751,6.9H9.846C8.4,27.762,7.2,29.307,7.2,31.2s1.182,3.453,2.637,3.453H22.128a57.249,57.249,0,0,0-.81,6.9H16.881c-1.458,0-2.64,1.545-2.64,3.453s1.182,3.45,2.64,3.45h4.437c.621,10.713,4.107,20.676,9.975,28.353C37.8,85.32,46.422,90,55.608,90s17.823-4.68,24.318-13.179S90,57.021,90,45,86.424,21.681,79.926,13.179ZM76.2,71.94c-4.872,6.375-11.169,10.2-17.949,11V80.1c0-1.905-1.182-3.453-2.64-3.453s-2.637,1.548-2.637,3.453v2.838c-6.774-.789-13.074-4.623-17.952-11a43.482,43.482,0,0,1-8.4-23.49h2.169c1.458,0,2.637-1.545,2.637-3.45s-1.179-3.45-2.637-3.45H26.613a43.623,43.623,0,0,1,8.4-23.49c4.866-6.39,11.169-10.2,17.949-11V9.9c0,1.9,1.182,3.45,2.637,3.45s2.64-1.545,2.64-3.45V7.059c6.789.792,13.086,4.641,17.961,11a43.462,43.462,0,0,1,8.4,23.49H82.431c-1.458,0-2.637,1.545-2.637,3.45s1.179,3.45,2.637,3.45H84.6A43.564,43.564,0,0,1,76.2,71.94Z" fill="#528e8e"/>
    </g>
  </g>
</svg>
