<svg xmlns="http://www.w3.org/2000/svg" width="200" height="190" viewBox="0 0 200 190">
  <path id="bassin_fond" d="M155.315,171.386c11.159,5.919,29.888,13.6,33.673,26.02,5.941,19.5-11.647,33.2,7.6,62.976s-6.955,65.909-7.6,66.608c-9.819,19.643-41.323,26.664-57.8,29.8-29.5,5.625-64.614-8.42-85.278-12.559-15.226-5.839-22.777-24.274-27.832-43.184C14.7,288.416,3.964,280.058,3.964,260.383.871,242.075,20.248,224.918,34.7,210.918c16.016-15.519,28.139-26.825,37.7-29.844C112.16,168.519,144.759,164.634,155.315,171.386Z" transform="translate(-3.635 -168.106)" fill="#faae02"/>
</svg>
