<svg xmlns="http://www.w3.org/2000/svg" xmlns:xlink="http://www.w3.org/1999/xlink" width="70" height="70" viewBox="0 0 70 70">
  <defs>
    <clipPath id="clip-path">
      <rect id="Rectangle_124" data-name="Rectangle 124" width="70" height="70" transform="translate(-2356 3669)" fill="#528e8e" stroke="#707070" stroke-width="1"/>
    </clipPath>
  </defs>
  <g id="Groupe_de_masques_4" data-name="Groupe de masques 4" transform="translate(2356 -3669)" clip-path="url(#clip-path)">
    <g id="euro" transform="translate(-2356 3669)">
      <path id="Tracé_56" data-name="Tracé 56" d="M35,0A35,35,0,1,0,70,35,35.041,35.041,0,0,0,35,0Zm0,65.625A30.625,30.625,0,1,1,65.625,35,30.659,30.659,0,0,1,35,65.625Z" fill="#528e8e"/>
      <path id="Tracé_57" data-name="Tracé 57" d="M45.016,48.949a9.305,9.305,0,0,1-5.329,1.676c-4.029,0-7.521-2.66-9.415-6.562H37.5a2.188,2.188,0,0,0,0-4.375H28.934A15.583,15.583,0,0,1,28.75,37.5a15.583,15.583,0,0,1,.184-2.187H39.688a2.188,2.188,0,0,0,0-4.375H30.272c1.894-3.9,5.386-6.562,9.415-6.562a9.305,9.305,0,0,1,5.329,1.676,2.188,2.188,0,0,0,2.467-3.614A13.8,13.8,0,0,0,39.688,20c-6.409,0-11.9,4.537-14.175,10.938H22.188a2.188,2.188,0,0,0,0,4.375h2.38a20.016,20.016,0,0,0-.193,2.188,20.016,20.016,0,0,0,.193,2.188h-2.38a2.188,2.188,0,0,0,0,4.375h3.325C27.792,50.463,33.278,55,39.688,55a13.8,13.8,0,0,0,7.8-2.437,2.188,2.188,0,0,0-2.467-3.614Z" transform="translate(-2.5 -2.5)" fill="#528e8e"/>
    </g>
  </g>
</svg>
