<svg xmlns="http://www.w3.org/2000/svg" xmlns:xlink="http://www.w3.org/1999/xlink" width="180" height="28" viewBox="0 0 180 28">
  <defs>
    <clipPath id="clip-path">
      <rect id="Rectangle_130" data-name="Rectangle 130" width="28" height="28" transform="translate(-2379 4078)" fill="#faae02" stroke="#707070" stroke-width="1"/>
    </clipPath>
    <clipPath id="clip-path-2">
      <rect id="Rectangle_131" data-name="Rectangle 131" width="28" height="28" transform="translate(-2324 4078)" fill="#faae02" stroke="#707070" stroke-width="1"/>
    </clipPath>
    <clipPath id="clip-path-3">
      <rect id="Rectangle_132" data-name="Rectangle 132" width="28" height="28" transform="translate(-2269 4078)" fill="#faae02" stroke="#707070" stroke-width="1"/>
    </clipPath>
    <clipPath id="clip-path-4">
      <rect id="Rectangle_133" data-name="Rectangle 133" width="28" height="28" transform="translate(-2214 4078)" fill="#faae02" stroke="#707070" stroke-width="1"/>
    </clipPath>
    <clipPath id="clip-path-5">
      <rect id="Rectangle_134" data-name="Rectangle 134" width="28" height="28" transform="translate(-2159 4078)" fill="#faae02" stroke="#707070" stroke-width="1"/>
    </clipPath>
  </defs>
  <g id="rating" transform="translate(2379 -4078)">
    <g id="Groupe_de_masques_7" data-name="Groupe de masques 7" clip-path="url(#clip-path)">
      <path id="star-full" d="M27.927,10.167a1.485,1.485,0,0,0-1.281-1.023L18.564,8.41,15.369.93a1.488,1.488,0,0,0-2.737,0L9.436,8.41l-8.083.734a1.49,1.49,0,0,0-.845,2.6L6.617,17.1l-1.8,7.935a1.486,1.486,0,0,0,2.213,1.608L14,22.481l6.969,4.166a1.488,1.488,0,0,0,2.214-1.608l-1.8-7.935,6.109-5.356a1.489,1.489,0,0,0,.436-1.582Zm0,0" transform="translate(-2379 4078.557)" fill="#faae02"/>
    </g>
    <g id="Groupe_de_masques_8" data-name="Groupe de masques 8" transform="translate(-17)" clip-path="url(#clip-path-2)">
      <path id="star-full-2" data-name="star-full" d="M27.927,10.167a1.485,1.485,0,0,0-1.281-1.023L18.564,8.41,15.369.93a1.488,1.488,0,0,0-2.737,0L9.436,8.41l-8.083.734a1.49,1.49,0,0,0-.845,2.6L6.617,17.1l-1.8,7.935a1.486,1.486,0,0,0,2.213,1.608L14,22.481l6.969,4.166a1.488,1.488,0,0,0,2.214-1.608l-1.8-7.935,6.109-5.356a1.489,1.489,0,0,0,.436-1.582Zm0,0" transform="translate(-2324 4078.557)" fill="#faae02"/>
    </g>
    <g id="Groupe_de_masques_9" data-name="Groupe de masques 9" transform="translate(-34)" clip-path="url(#clip-path-3)">
      <path id="star-full-3" data-name="star-full" d="M27.927,10.167a1.485,1.485,0,0,0-1.281-1.023L18.564,8.41,15.369.93a1.488,1.488,0,0,0-2.737,0L9.436,8.41l-8.083.734a1.49,1.49,0,0,0-.845,2.6L6.617,17.1l-1.8,7.935a1.486,1.486,0,0,0,2.213,1.608L14,22.481l6.969,4.166a1.488,1.488,0,0,0,2.214-1.608l-1.8-7.935,6.109-5.356a1.489,1.489,0,0,0,.436-1.582Zm0,0" transform="translate(-2269 4078.557)" fill="#faae02"/>
    </g>
    <g id="Groupe_de_masques_10" data-name="Groupe de masques 10" transform="translate(-51)" clip-path="url(#clip-path-4)">
      <path id="star-full-4" data-name="star-full" d="M27.927,10.167a1.485,1.485,0,0,0-1.281-1.023L18.564,8.41,15.369.93a1.488,1.488,0,0,0-2.737,0L9.436,8.41l-8.083.734a1.49,1.49,0,0,0-.845,2.6L6.617,17.1l-1.8,7.935a1.486,1.486,0,0,0,2.213,1.608L14,22.481l6.969,4.166a1.488,1.488,0,0,0,2.214-1.608l-1.8-7.935,6.109-5.356a1.489,1.489,0,0,0,.436-1.582Zm0,0" transform="translate(-2214 4078.557)" fill="#faae02"/>
    </g>
    <g id="Groupe_de_masques_11" data-name="Groupe de masques 11" transform="translate(-68)" clip-path="url(#clip-path-5)">
      <path id="Tracé_72" data-name="Tracé 72" d="M6.268,26.831a1.484,1.484,0,0,1-1.485-1.49,1.347,1.347,0,0,1,.038-.329l1.8-7.934L.51,11.72a1.492,1.492,0,0,1-.142-2.1,1.516,1.516,0,0,1,.986-.5l8.082-.729L12.629.9a1.488,1.488,0,0,1,2.74,0l3.194,7.479,8.082.734a1.491,1.491,0,0,1,1.348,1.616,1.468,1.468,0,0,1-.5.986l-6.109,5.359,1.8,7.934a1.486,1.486,0,0,1-2.214,1.605L14,22.453,7.03,26.623A1.487,1.487,0,0,1,6.268,26.831ZM14,20.656a1.441,1.441,0,0,1,.762.214l6.58,3.934-1.7-7.49a1.5,1.5,0,0,1,.471-1.452L25.883,10.8l-7.638-.69a1.484,1.484,0,0,1-1.238-.9L13.994,2.153,10.98,9.21a1.48,1.48,0,0,1-1.227.9l-7.632.7L7.89,15.862a1.493,1.493,0,0,1,.471,1.452l-1.7,7.49,6.575-3.934A1.493,1.493,0,0,1,14,20.656ZM9.375,8.525Zm9.249,0Z" transform="translate(-2158.999 4078.585)" fill="#faae02"/>
      <path id="Tracé_73" data-name="Tracé 73" d="M14,21.626V.877L9.747,8.827l-8.416,1.3-.312,1.118,6.274,5.687-1.43,9.1Z" transform="translate(-2158.999 4078.585)" fill="#faae02"/>
    </g>
  </g>
</svg>
