<svg xmlns="http://www.w3.org/2000/svg" width="200" height="190" viewBox="0 0 200 190">
  <path id="reptile_fond" d="M154.309,171.594c11.072,5.624,29.657,12.919,33.412,24.724,5.9,18.53,18.6,27.98,18.6,59.839s-17.966,66.931-18.6,67.6c-9.743,18.665-41,21.03-57.351,24.014-29.274,5.345-64.114-8-84.618-11.933-15.109-5.548-22.6-23.065-27.617-41.032-3.352-12.007-5.543-24.394-8.2-32.829-10.824-34.328,5.939-54.06,8.2-65.654,9.486-31.828,19.989-25.115,44.447-32.51C102.035,151.878,143.834,165.178,154.309,171.594Z" transform="translate(-6.326 -159.012)" fill="#faae02"/>
</svg>
