<svg xmlns="http://www.w3.org/2000/svg" xmlns:xlink="http://www.w3.org/1999/xlink" width="80" height="80" viewBox="0 0 80 80">
  <defs>
    <clipPath id="clip-path">
      <rect id="Rectangle_122" data-name="Rectangle 122" width="80" height="80" transform="translate(-2356 3568)" fill="#fff" stroke="#707070" stroke-width="1"/>
    </clipPath>
  </defs>
  <g id="Groupe_de_masques_2" data-name="Groupe de masques 2" transform="translate(2356 -3568)" clip-path="url(#clip-path)">
    <g id="suggestion" transform="translate(-2358.667 3564.667)">
      <circle id="Ellipse_10" data-name="Ellipse 10" cx="2.667" cy="2.667" r="2.667" transform="translate(24 34.667)" fill="#528e8e"/>
      <circle id="Ellipse_11" data-name="Ellipse 11" cx="2.667" cy="2.667" r="2.667" transform="translate(40 34.667)" fill="#528e8e"/>
      <path id="Tracé_51" data-name="Tracé 51" d="M34.667,49.333a8.224,8.224,0,0,1-6.36-3.149l2.052-1.7a5.34,5.34,0,0,0,8.615,0l2.052,1.7A8.219,8.219,0,0,1,34.667,49.333Z" fill="#528e8e"/>
      <path id="Tracé_52" data-name="Tracé 52" d="M81.333,38.667a6.669,6.669,0,0,0-6.667,6.667v1.333H69.333a4.012,4.012,0,0,0-4,4,3.954,3.954,0,0,0,1.027,2.667,3.977,3.977,0,0,0,0,5.333,3.977,3.977,0,0,0,0,5.333,3.956,3.956,0,0,0-1.013,2.347,27.732,27.732,0,0,0-2.187-5A25.217,25.217,0,0,1,60,49.133v-19.8a25.333,25.333,0,1,0-50.667,0v19.8a25.217,25.217,0,0,1-3.16,12.213,27.915,27.915,0,0,0-3.507,13.52v6.467A1.337,1.337,0,0,0,4,82.667H65.333a1.337,1.337,0,0,0,1.333-1.333V74.867a28.7,28.7,0,0,0-.64-5.947,4,4,0,0,0,3.307,1.747h1.333V81.333A1.337,1.337,0,0,0,72,82.667h9.333a1.337,1.337,0,0,0,1.333-1.333V40a1.337,1.337,0,0,0-1.333-1.333ZM60.84,62.653a25.074,25.074,0,0,1,2.893,8.587,12.03,12.03,0,0,0-6.32-3.8L44,64.28V59.013A20,20,0,0,0,54.627,42.547a6.746,6.746,0,0,0,2.707-1.213v7.8a27.915,27.915,0,0,0,3.507,13.52ZM39.533,21.52C42.52,28.76,49.28,31.093,52,31.747v9.587a17.333,17.333,0,1,1-34.667,0V31.947c3.84-.267,15.013-1.76,22.2-10.427Zm-22.2,7.733a17.328,17.328,0,0,1,34.653-.24A14.647,14.647,0,0,1,41.293,18.347a1.324,1.324,0,0,0-2.4-.413C32.693,27.213,21.227,28.947,17.333,29.253ZM54.667,39.76V32.24a3.984,3.984,0,0,1,0,7.52ZM12,29.333a22.667,22.667,0,0,1,45.333,0v1.333a6.558,6.558,0,0,0-2.667-1.2v-.133a20,20,0,0,0-40,0v.133A6.558,6.558,0,0,0,12,30.667Zm2.667,2.907v7.52a3.984,3.984,0,0,1,0-7.52ZM8.493,62.653A27.915,27.915,0,0,0,12,49.133v-7.8a6.746,6.746,0,0,0,2.707,1.213A20,20,0,0,0,25.333,59.013V64.28L11.92,67.44a12.03,12.03,0,0,0-6.32,3.8A25.074,25.074,0,0,1,8.493,62.653ZM5.333,80v-.88a9.3,9.3,0,0,1,7.2-9.093l2.92-.68L18.48,72.36,17.4,75.573a1.336,1.336,0,0,0,.72,1.64L24.387,80ZM20.32,75.28l.947-2.853a1.371,1.371,0,0,0-.32-1.373l-2.44-2.44,7.187-1.68L28.707,79ZM37.627,80h-5.92l-1.64-6.547a9.282,9.282,0,0,0,9.2-.013Zm-2.96-8a6.574,6.574,0,0,1-4.72-1.973,6.223,6.223,0,0,1-1.08-1.4l-.013-.013L28,65.173V60.187a19.953,19.953,0,0,0,13.333,0v4.987l-.853,3.413A6.628,6.628,0,0,1,34.667,72Zm8.973-5.067,7.187,1.68-2.44,2.44a1.371,1.371,0,0,0-.32,1.373l.947,2.853L40.627,79ZM64,80H44.947l6.267-2.787a1.336,1.336,0,0,0,.72-1.64l-1.08-3.213,3.027-3.013,2.92.68A9.3,9.3,0,0,1,64,79.12Zm16,0H73.333V69.333A1.337,1.337,0,0,0,72,68H69.333a1.333,1.333,0,1,1,0-2.667,1.333,1.333,0,1,0,0-2.667,1.333,1.333,0,1,1,0-2.667,1.333,1.333,0,1,0,0-2.667,1.333,1.333,0,1,1,0-2.667,1.333,1.333,0,1,0,0-2.667,1.333,1.333,0,1,1,0-2.667H76A1.337,1.337,0,0,0,77.333,48V45.333A4.018,4.018,0,0,1,80,41.56Z" fill="#528e8e"/>
    </g>
  </g>
</svg>
