<svg xmlns="http://www.w3.org/2000/svg" xmlns:xlink="http://www.w3.org/1999/xlink" width="80" height="80" viewBox="0 0 80 80">
  <defs>
    <clipPath id="clip-path">
      <rect id="Rectangle_125" data-name="Rectangle 125" width="80" height="80" transform="translate(-2418 3770)" fill="#fff" stroke="#707070" stroke-width="1"/>
    </clipPath>
  </defs>
  <g id="Groupe_de_masques_5" data-name="Groupe de masques 5" transform="translate(2418 -3770)" clip-path="url(#clip-path)">
    <g id="vip" transform="translate(-2418.631 3769.608)">
      <path id="Tracé_58" data-name="Tracé 58" d="M52.85,38.2,40.391,11.222,27.934,38.2,3.9,26.587,13.78,72.2H67l9.881-45.612Z" fill="#528e8e"/>
      <path id="Tracé_59" data-name="Tracé 59" d="M73.328,28.305,63.847,72.2H67l9.881-45.612Z" fill="#528e8e"/>
      <path id="Tracé_60" data-name="Tracé 60" d="M7.455,28.305,16.936,72.2H13.78L3.9,26.587Z" fill="#528e8e"/>
      <path id="Tracé_61" data-name="Tracé 61" d="M67,72.83H13.78a.632.632,0,0,1-.617-.5L3.283,26.721a.631.631,0,0,1,.891-.7L27.63,37.355l12.188-26.4a.631.631,0,0,1,1.146,0l12.188,26.4L76.609,26.019a.631.631,0,0,1,.891.7L67.62,72.332a.632.632,0,0,1-.617.5ZM14.289,71.568h52.2l9.5-43.849L53.124,38.771a.631.631,0,0,1-.848-.3L40.392,12.727,28.507,38.468a.631.631,0,0,1-.848.3L4.791,27.719Z"/>
      <path id="Tracé_62" data-name="Tracé 62" d="M10.16,41.464a.631.631,0,0,1-.616-.5l-.836-3.787a.631.631,0,1,1,1.233-.272l.836,3.787a.631.631,0,0,1-.617.767Z" fill="#528e8e"/>
      <circle id="Ellipse_12" data-name="Ellipse 12" cx="2.638" cy="2.638" r="2.638" transform="matrix(0.972, -0.236, 0.236, 0.972, 0.715, 24.653)" fill="#faae02"/>
      <circle id="Ellipse_13" data-name="Ellipse 13" cx="2.638" cy="2.638" r="2.638" transform="translate(73.179 26.365) rotate(-42.123)" fill="#faae02"/>
      <path id="Tracé_68" data-name="Tracé 68" d="M2.637,0A2.637,2.637,0,1,1,0,2.637,2.637,2.637,0,0,1,2.637,0Z" transform="translate(37.259 9.178) rotate(-12.007)" fill="#faae02"/>
      <path id="Tracé_63" data-name="Tracé 63" d="M3.9,29.855a3.268,3.268,0,1,1,3.268-3.268A3.272,3.272,0,0,1,3.9,29.855Zm0-5.274a2.006,2.006,0,1,0,2.006,2.006A2.008,2.008,0,0,0,3.9,24.581Z"/>
      <path id="Tracé_64" data-name="Tracé 64" d="M76.884,29.855a3.268,3.268,0,1,1,3.268-3.268A3.272,3.272,0,0,1,76.884,29.855Zm0-5.274a2.006,2.006,0,1,0,2.006,2.006A2.008,2.008,0,0,0,76.884,24.581Z"/>
      <path id="Tracé_65" data-name="Tracé 65" d="M40.392,14.49a3.268,3.268,0,1,1,3.268-3.268,3.272,3.272,0,0,1-3.268,3.268Zm0-5.274A2.006,2.006,0,1,0,42.4,11.222a2.008,2.008,0,0,0-2.006-2.006Z"/>
      <path id="Tracé_66" data-name="Tracé 66" d="M40.392,59.777l-7.2,3.787,1.376-8.021-5.827-5.68,8.053-1.17,3.6-7.3,3.6,7.3,8.053,1.17-5.827,5.68,1.376,8.021Z" fill="#faae02"/>
      <path id="Tracé_67" data-name="Tracé 67" d="M47.6,64.2a.635.635,0,0,1-.294-.072l-6.91-3.633-6.91,3.633a.631.631,0,0,1-.915-.665l1.32-7.694L28.3,50.315a.631.631,0,0,1,.35-1.076l7.725-1.123,3.455-7a.631.631,0,0,1,1.132,0l3.455,7,7.725,1.123a.631.631,0,0,1,.35,1.076L46.9,55.764l1.32,7.694a.63.63,0,0,1-.622.737Zm-7.2-5.049a.636.636,0,0,1,.294.072l6.072,3.192L45.6,55.65a.632.632,0,0,1,.181-.559L50.691,50.3,43.9,49.317a.631.631,0,0,1-.475-.345l-3.036-6.151-3.036,6.151a.631.631,0,0,1-.475.345l-6.788.986L35,55.092a.631.631,0,0,1,.181.559l-1.16,6.761L40.1,59.219a.632.632,0,0,1,.294-.073Z"/>
    </g>
  </g>
</svg>
