<svg xmlns="http://www.w3.org/2000/svg" xmlns:xlink="http://www.w3.org/1999/xlink" width="40" height="40" viewBox="0 0 40 40">
  <defs>
    <clipPath id="clip-path">
      <rect id="Rectangle_138" data-name="Rectangle 138" width="40" height="40" transform="translate(-2305 4622)" fill="#faae02" stroke="#707070" stroke-width="1"/>
    </clipPath>
  </defs>
  <g id="Groupe_de_masques_12" data-name="Groupe de masques 12" transform="translate(2305 -4622)" clip-path="url(#clip-path)">
    <g id="youtube" transform="translate(-2305 4622)">
      <path id="Tracé_74" data-name="Tracé 74" d="M17.509,23.747,24.015,20l-6.506-3.747Zm0,0" fill="#faae02"/>
      <path id="Tracé_75" data-name="Tracé 75" d="M20,0A20,20,0,1,0,40,20,20,20,0,0,0,20,0ZM32.5,20.02a33.009,33.009,0,0,1-.515,6.012,3.132,3.132,0,0,1-2.2,2.2C27.823,28.75,20,28.75,20,28.75s-7.8,0-9.779-.535a3.132,3.132,0,0,1-2.2-2.2A32.864,32.864,0,0,1,7.5,20a32.988,32.988,0,0,1,.515-6.012,3.2,3.2,0,0,1,2.2-2.224C12.176,11.25,20,11.25,20,11.25s7.824,0,9.779.535a3.132,3.132,0,0,1,2.2,2.2A31.325,31.325,0,0,1,32.5,20.02Zm0,0" fill="#faae02"/>
    </g>
  </g>
</svg>
